<?xml version="1.0" encoding="iso-8859-1"?>
<!-- Generator: Adobe Illustrator 19.0.0, SVG Export Plug-In . SVG Version: 6.00 Build 0)  -->
<svg version="1.1" id="Layer_1" xmlns="http://www.w3.org/2000/svg" xmlns:xlink="http://www.w3.org/1999/xlink" x="0px" y="0px"
	 viewBox="0 0 512 512" style="enable-background:new 0 0 512 512;" xml:space="preserve">
<polygon style="fill:#FFFFFF;" points="58,397.152 58,114.856 256,9.072 454,114.856 454,397.152 256,502.928 "/>
<path style="fill:#E21B1B;" d="M256,18.144l190,101.512V392.36L256,493.856L66,392.352V119.648L256,18.144 M256,0L50,110.056
	v291.888L256,512l206-110.056V110.056L256,0L256,0z"/>
<circle style="fill:#C9C9C9;" cx="174.528" cy="200.48" r="35.656"/>
<path style="fill:#E21B1B;" d="M236.032,315.168c0,0,0,1.664,0-31.56s-36.256-33.824-36.256-33.824h-50.48
	c0,0-36.256,0.408-36.256,33.824c0,33.224,0,31.56,0,31.56H236.032z"/>
<circle style="fill:#C9C9C9;" cx="337.44" cy="200.48" r="35.656"/>
<path style="fill:#E21B1B;" d="M398.968,315.168c0,0,0,1.664,0-31.56s-36.256-33.824-36.256-33.824h-50.48
	c0,0-36.256,0.408-36.256,33.824c0,33.224,0,31.56,0,31.56H398.968z"/>
<g>
</g>
<g>
</g>
<g>
</g>
<g>
</g>
<g>
</g>
<g>
</g>
<g>
</g>
<g>
</g>
<g>
</g>
<g>
</g>
<g>
</g>
<g>
</g>
<g>
</g>
<g>
</g>
<g>
</g>
</svg>
