<svg xmlns:xlink="http://www.w3.org/1999/xlink" xmlns="http://www.w3.org/2000/svg" viewBox="0 0 2720.42 490.61" width="2720.42"  height="490.61" ><defs><style>.cls-1{fill:#fff;}.cls-2{fill:#ff2c2c;}</style></defs><g id="Layer_2" data-name="Layer 2"><g id="Layer_1-2" data-name="Layer 1"><path class="cls-1" d="M883.07,478.84c-2.44-1.2-60.65-30-119.07-79.3-35.48-29.92-64-61.46-84.89-93.72-28.22-43.66-42.52-88.82-42.52-134.24,0-43.39,17.94-86.83,49.23-119.2C718.48,18.6,761.48,0,806.9,0a175.72,175.72,0,0,1,18.93,1h.34l3.56.46a175,175,0,0,1,71.63,26.15c2,1.31,4,2.67,6,4.06A174.49,174.49,0,0,1,1007.75,0c45.43,0,88.43,18.6,121.08,52.38,31.29,32.37,49.23,75.81,49.23,119.2,0,38.9-10.54,77.78-31.34,115.56-16.22,29.47-38.88,58.53-67.34,86.35C1031.13,420.68,977,453.94,949,469.56c-1.51.85-3,1.66-4.37,2.41l-.94.51c-2.76,1.51-5.08,2.74-6.89,3.69l-.64.33-1.33.69-.48.25c-1.89,1-2.9,1.45-2.9,1.45l-24.15,11.72Z"/><path class="cls-2" d="M1123.06,171.58c0,127.55-152.06,222.71-200.86,250q-2.18,1.21-4.08,2.25l-.74.41c-2.45,1.33-4.5,2.42-6.1,3.26l-.47.23-1.06.56-.5.26-1.92,1s-215.74-106-215.74-257.9C691.59,111.1,743.22,55,806.9,55a121,121,0,0,1,15.69,1h0c35.41,4.62,66.92,24.71,84.73,54.8C927.72,76.34,966.11,55,1007.75,55,1071.43,55,1123.06,111.1,1123.06,171.58Z"/><path class="cls-1" d="M559.75,127.77v93.51q0,47.75-49.07,47.74H71.73q-10.12,0-14.53,2-6.6,2.87-6.6,19.59v26H237l24.86,2.2q34.11-.66,35.87,44-1.11,1.1-39.17,1.1H0V257.58q0-35.2,39.16-35.2H327V127.77h48.41v94h43.34V127.77h48.41v94H490q21.57,0,21.56-21.56V127.77Z"/><path class="cls-1" d="M1375.19,65.94a24.17,24.17,0,0,0-34.1,0,22.9,22.9,0,0,0-7.15,16.94,24.2,24.2,0,0,0,48.4,0A22.9,22.9,0,0,0,1375.19,65.94Z"/><path class="cls-1" d="M1864.65,126.88v72.39q0,15.85-8.8,19.81-4.18,2-21.57,1.76H1793.8V162.09q0-35.64-38.73-35.64h-70.85q-38.51,0-38.5,35.64v58.75h-73.27v-94h-48.19v94h-70.63V126.66h-48.18V270.78a46,46,0,0,1-14.19,33.89,48,48,0,0,1-82-33.89V126.88h-48.4V272.1q0,39.82,28.71,67.66t68.76,27.84q39.83,0,67.55-29.71t27.72-69.75h410.14q49.07,0,49.06-47.74V126.88Zm-120.14,82.3q0,11.65-12.54,11.66h-24.86q-12.54,0-12.54-11.66v-24q0-11.43,12.54-11.44H1732q12.54,0,12.54,11.44Z"/><path class="cls-1" d="M1591.59,300.05a23.33,23.33,0,0,0-17.16-7,22.55,22.55,0,0,0-16.83,7.15,24.44,24.44,0,0,0,0,34.1,22.55,22.55,0,0,0,16.83,7.15,24.27,24.27,0,0,0,17.16-41.36Zm-55,.11a23.65,23.65,0,0,0-33.89,0,24.17,24.17,0,0,0,0,34.1,23.65,23.65,0,0,0,33.89,0,24.17,24.17,0,0,0,0-34.1Z"/><path class="cls-1" d="M1766.51,67.7a23.31,23.31,0,0,0-17.16-7,22.55,22.55,0,0,0-16.83,7.15,24.44,24.44,0,0,0,0,34.1,22.55,22.55,0,0,0,16.83,7.15,24.05,24.05,0,0,0,24.21-24.2A23.32,23.32,0,0,0,1766.51,67.7Zm-55,.11a23.65,23.65,0,0,0-33.89,0,24.17,24.17,0,0,0,0,34.1,23.65,23.65,0,0,0,33.89,0,24.17,24.17,0,0,0,0-34.1Z"/><path class="cls-1" d="M1934.18,300.49a23.35,23.35,0,0,0-17.17-7,22.55,22.55,0,0,0-16.83,7.15,24.44,24.44,0,0,0,0,34.1,22.55,22.55,0,0,0,16.83,7.15,24.27,24.27,0,0,0,17.17-41.36Zm-55,.11a23.64,23.64,0,0,0-33.88,0,24.14,24.14,0,0,0,0,34.1,23.64,23.64,0,0,0,33.88,0,24.17,24.17,0,0,0,0-34.1Z"/><path class="cls-1" d="M2066.57,268.14h-48.4V18.19h48.4Z"/><path class="cls-1" d="M2197.9,320.29q0,21.12-11.45,33.88-12.1,13.43-33,13.43H2085.9V317.87l41.81-.22q12.75,0,17.6-6.82,4-5.5,4-18.92V126.66h48.63Z"/><path class="cls-1" d="M2694.68,287a13.73,13.73,0,0,0-5.28-.77q-12.77,0-28,19.58-14.07,18-14.08,33.88,0,16.5,15.62,16.51c4.63,0,8.51-2.08,11.68-6.24a32.74,32.74,0,0,1,2.89-3.35,17.83,17.83,0,0,0,4-6,22.07,22.07,0,0,0,1.65-8.14,41.16,41.16,0,0,0-.75-8.42,26.42,26.42,0,0,1,6.84-24.16l1.39-1.41q5.72-5.83,5.72-7.59C2696.44,288.75,2695.85,287.47,2694.68,287Z"/><path class="cls-1" d="M2672.24,126.88v72.39a218.12,218.12,0,0,1-1.1,24.87h-40.49q-.22,0,0-97h-44l-.22,94.37-34.32-.64-22.44-.22V162.09q0-35.43-38.73-35.43H2381.36v94.18h-55.89q-24.42,0-24.42-21.35V18.19h-48.41V221.28q0,46.86,48.63,46.86h370.09q49,0,49.06-47.74V126.88ZM2480.15,209q0,11.65-12.54,11.66h-36.53V173.75h36.53q12.54,0,12.54,11.44Z"/></g></g></svg>